<mxfile host="app.diagrams.net" modified="2023-08-03T14:40:24.733Z" agent="Mozilla/5.0 (Windows NT 10.0; Win64; x64) AppleWebKit/537.36 (KHTML, like Gecko) Chrome/114.0.0.0 Safari/537.36 OPR/100.0.0.0" etag="rhbc4Cy6pWztbXvtOaOE" version="21.6.2" type="device">
  <diagram name="Sayfa -1" id="ADkStirxcj73SHL77IOE">
    <mxGraphModel dx="1342" dy="524" grid="1" gridSize="10" guides="1" tooltips="1" connect="1" arrows="1" fold="1" page="1" pageScale="1" pageWidth="827" pageHeight="1169" math="0" shadow="0">
      <root>
        <mxCell id="0" />
        <mxCell id="1" parent="0" />
        <mxCell id="T9HqiDAT7P5B-TO0h3hv-4" style="edgeStyle=orthogonalEdgeStyle;rounded=0;orthogonalLoop=1;jettySize=auto;html=1;exitX=0.5;exitY=1;exitDx=0;exitDy=0;entryX=0.5;entryY=0;entryDx=0;entryDy=0;" edge="1" parent="1" source="T9HqiDAT7P5B-TO0h3hv-1" target="T9HqiDAT7P5B-TO0h3hv-3">
          <mxGeometry relative="1" as="geometry" />
        </mxCell>
        <mxCell id="T9HqiDAT7P5B-TO0h3hv-1" value="Web Scraping from Web (Might be first Zara)" style="rounded=0;whiteSpace=wrap;html=1;" vertex="1" parent="1">
          <mxGeometry x="60" y="50" width="260" height="90" as="geometry" />
        </mxCell>
        <mxCell id="T9HqiDAT7P5B-TO0h3hv-6" style="edgeStyle=orthogonalEdgeStyle;rounded=0;orthogonalLoop=1;jettySize=auto;html=1;exitX=0.5;exitY=1;exitDx=0;exitDy=0;entryX=0.5;entryY=0;entryDx=0;entryDy=0;" edge="1" parent="1" source="T9HqiDAT7P5B-TO0h3hv-3" target="T9HqiDAT7P5B-TO0h3hv-5">
          <mxGeometry relative="1" as="geometry" />
        </mxCell>
        <mxCell id="T9HqiDAT7P5B-TO0h3hv-3" value="Storing to NoSQL" style="rounded=0;whiteSpace=wrap;html=1;" vertex="1" parent="1">
          <mxGeometry x="60" y="210" width="260" height="90" as="geometry" />
        </mxCell>
        <mxCell id="T9HqiDAT7P5B-TO0h3hv-8" style="edgeStyle=orthogonalEdgeStyle;rounded=0;orthogonalLoop=1;jettySize=auto;html=1;exitX=0.5;exitY=1;exitDx=0;exitDy=0;entryX=0.5;entryY=0;entryDx=0;entryDy=0;" edge="1" parent="1" source="T9HqiDAT7P5B-TO0h3hv-5" target="T9HqiDAT7P5B-TO0h3hv-7">
          <mxGeometry relative="1" as="geometry" />
        </mxCell>
        <mxCell id="T9HqiDAT7P5B-TO0h3hv-5" value="Modeling the Data" style="rounded=0;whiteSpace=wrap;html=1;" vertex="1" parent="1">
          <mxGeometry x="60" y="370" width="260" height="90" as="geometry" />
        </mxCell>
        <mxCell id="T9HqiDAT7P5B-TO0h3hv-16" style="edgeStyle=orthogonalEdgeStyle;rounded=0;orthogonalLoop=1;jettySize=auto;html=1;exitX=0.5;exitY=1;exitDx=0;exitDy=0;" edge="1" parent="1" source="T9HqiDAT7P5B-TO0h3hv-7">
          <mxGeometry relative="1" as="geometry">
            <mxPoint x="400" y="1141.939364346591" as="targetPoint" />
            <Array as="points">
              <mxPoint x="190" y="1000" />
              <mxPoint x="401" y="1000" />
              <mxPoint x="401" y="1142" />
            </Array>
          </mxGeometry>
        </mxCell>
        <mxCell id="T9HqiDAT7P5B-TO0h3hv-7" value="Testing the Model" style="rounded=0;whiteSpace=wrap;html=1;" vertex="1" parent="1">
          <mxGeometry x="60" y="530" width="260" height="90" as="geometry" />
        </mxCell>
        <mxCell id="T9HqiDAT7P5B-TO0h3hv-9" value="Web Scraping from Instagram" style="rounded=0;whiteSpace=wrap;html=1;" vertex="1" parent="1">
          <mxGeometry x="480" y="640" width="260" height="90" as="geometry" />
        </mxCell>
        <mxCell id="T9HqiDAT7P5B-TO0h3hv-13" style="edgeStyle=orthogonalEdgeStyle;rounded=0;orthogonalLoop=1;jettySize=auto;html=1;exitX=0.5;exitY=1;exitDx=0;exitDy=0;entryX=0.5;entryY=0;entryDx=0;entryDy=0;" edge="1" parent="1">
          <mxGeometry relative="1" as="geometry">
            <mxPoint x="609.09" y="730" as="sourcePoint" />
            <mxPoint x="609.09" y="800" as="targetPoint" />
          </mxGeometry>
        </mxCell>
        <mxCell id="T9HqiDAT7P5B-TO0h3hv-17" style="edgeStyle=orthogonalEdgeStyle;rounded=0;orthogonalLoop=1;jettySize=auto;html=1;exitX=0.5;exitY=1;exitDx=0;exitDy=0;" edge="1" parent="1" source="T9HqiDAT7P5B-TO0h3hv-15">
          <mxGeometry relative="1" as="geometry">
            <mxPoint x="400" y="1140" as="targetPoint" />
            <Array as="points">
              <mxPoint x="610" y="1000" />
              <mxPoint x="401" y="1000" />
              <mxPoint x="401" y="1140" />
            </Array>
          </mxGeometry>
        </mxCell>
        <mxCell id="T9HqiDAT7P5B-TO0h3hv-15" value="Storing to NoSQL" style="rounded=0;whiteSpace=wrap;html=1;" vertex="1" parent="1">
          <mxGeometry x="480" y="800" width="260" height="90" as="geometry" />
        </mxCell>
        <mxCell id="T9HqiDAT7P5B-TO0h3hv-18" value="Predict Data from Instagram" style="rounded=0;whiteSpace=wrap;html=1;" vertex="1" parent="1">
          <mxGeometry x="280" y="1150" width="260" height="90" as="geometry" />
        </mxCell>
      </root>
    </mxGraphModel>
  </diagram>
</mxfile>
